<?xml version="1.0" standalone="no"?>
<!DOCTYPE svg PUBLIC "-//W3C//DTD SVG 20010904//EN"
 "http://www.w3.org/TR/2001/REC-SVG-20010904/DTD/svg10.dtd">
<svg version="1.0" xmlns="http://www.w3.org/2000/svg"
 width="700.000000pt" height="700.000000pt" viewBox="0 0 700.000000 700.000000"
 preserveAspectRatio="xMidYMid meet">
<metadata>
Created by potrace 1.14, written by Peter Selinger 2001-2017
</metadata>
<g transform="translate(0.000000,700.000000) scale(0.100000,-0.100000)"
fill="#000000" stroke="none">
<path d="M3405 5818 c-72 -26 -146 -97 -181 -173 -5 -11 -11 -412 -14 -935
l-5 -915 -915 -5 -915 -5 -42 -23 c-93 -49 -147 -123 -162 -220 -14 -95 17
-181 90 -252 87 -86 28 -81 1049 -81 l900 1 0 -899 c0 -1029 -5 -966 85 -1055
102 -102 252 -117 370 -37 46 31 100 106 115 159 6 24 10 354 10 934 l0 897
898 0 c494 1 911 5 927 9 130 39 211 140 214 271 2 100 -32 178 -101 233 -89
72 -33 68 -1036 68 l-902 0 -3 913 c-1 501 -5 919 -8 929 -22 73 -110 160
-188 186 -42 15 -145 14 -186 0z"/>
</g>
</svg>
