<?xml version="1.0" standalone="no"?>
<!DOCTYPE svg PUBLIC "-//W3C//DTD SVG 20010904//EN"
 "http://www.w3.org/TR/2001/REC-SVG-20010904/DTD/svg10.dtd">
<svg version="1.0" xmlns="http://www.w3.org/2000/svg"
 width="1600.000000pt" height="1600.000000pt" viewBox="0 0 1600.000000 1600.000000"
 preserveAspectRatio="xMidYMid meet">
<metadata>
Created by potrace 1.14, written by Peter Selinger 2001-2017
</metadata>
<g transform="translate(0.000000,1600.000000) scale(0.100000,-0.100000)"
fill="#000000" stroke="none">
<path d="M7859 15356 c-2 -2 -27 -6 -55 -10 -123 -14 -312 -62 -399 -101 -234
-103 -376 -197 -528 -349 -74 -75 -217 -246 -217 -262 0 -3 -16 -30 -35 -60
-61 -95 -134 -266 -165 -384 -20 -75 -21 -81 -40 -195 -17 -104 -19 -225 -19
-2249 -1 -1177 -3 -2141 -4 -2143 -2 -1 -979 -4 -2173 -6 -1193 -1 -2178 -5
-2189 -9 -11 -3 -40 -9 -65 -13 -313 -49 -624 -210 -858 -445 -77 -77 -212
-240 -212 -256 0 -3 -16 -30 -35 -60 -71 -110 -148 -298 -180 -439 -1 -5 -5
-21 -8 -35 -4 -14 -9 -41 -12 -60 -2 -19 -8 -57 -12 -85 -10 -63 -11 -6071 -1
-6145 64 -494 339 -920 758 -1177 160 -98 395 -186 550 -207 25 -3 70 -10 100
-16 34 -5 2332 -9 5940 -9 5672 0 5889 1 5995 19 114 19 120 20 195 40 118 31
289 104 384 165 30 19 57 35 60 35 16 0 179 135 252 207 161 161 255 302 359
538 31 69 77 235 89 320 4 23 10 52 14 65 4 14 8 2689 9 5945 2 5764 1 5923
-17 6030 -62 360 -207 643 -458 892 -244 242 -532 386 -882 443 -110 17 -247
18 -3126 19 -1656 0 -3013 -1 -3015 -3z m6066 -652 c254 -48 468 -183 618
-390 45 -63 108 -190 131 -264 48 -158 45 203 43 -6075 -1 -3228 -6 -5886 -10
-5905 -4 -19 -12 -46 -17 -60 -4 -14 -11 -38 -15 -55 -3 -16 -20 -61 -38 -100
-136 -303 -402 -507 -732 -563 -22 -4 -2686 -7 -5920 -7 -4823 0 -5890 2
-5935 13 -75 18 -215 70 -270 100 -165 91 -313 245 -396 413 -36 73 -77 179
-69 179 3 0 0 12 -6 27 -6 15 -13 50 -17 78 -10 73 -9 6011 2 6070 4 28 12 58
17 67 5 9 9 24 9 34 0 9 16 56 36 103 118 278 358 484 654 563 l85 22 1280 3
c704 2 1701 4 2215 6 l935 2 65 24 c208 74 351 217 422 421 l22 65 3 1050 c2
578 4 1572 6 2210 2 638 7 1178 11 1200 5 22 12 48 17 57 5 9 9 24 9 34 0 30
72 187 119 259 115 178 323 334 517 391 150 43 52 42 3164 43 2607 0 2975 -2
3045 -15z"/>
<path d="M10807 11189 c-119 -27 -219 -134 -241 -257 -3 -18 -6 -930 -7 -2025
0 -1199 -4 -2016 -10 -2052 -5 -33 -12 -76 -14 -95 -8 -51 -56 -233 -65 -245
-5 -5 -9 -14 -10 -20 -1 -5 -6 -20 -11 -33 -5 -13 -9 -25 -9 -27 0 -12 -80
-169 -114 -225 -232 -376 -606 -642 -1022 -729 -55 -11 -112 -24 -129 -28 -33
-8 -4881 -16 -4874 -8 2 2 318 319 701 703 769 770 747 744 754 876 6 133 -62
246 -186 304 -43 20 -70 26 -131 26 -147 0 -79 61 -1195 -1057 -799 -800 -995
-1002 -1014 -1042 -34 -71 -34 -199 0 -270 19 -40 215 -242 1020 -1047 1118
-1120 1041 -1052 1190 -1052 130 0 232 65 288 184 22 44 27 69 26 130 -1 146
33 106 -755 894 l-700 701 198 2 c109 2 1213 4 2453 6 1654 3 2270 7 2310 15
30 6 73 14 95 17 22 4 67 13 100 22 33 8 71 17 85 20 99 17 414 149 539 224
34 22 65 39 67 39 6 0 97 65 189 134 110 83 315 291 406 411 79 105 159 228
159 244 0 5 4 11 9 13 21 7 124 244 191 438 10 29 50 186 55 215 2 11 9 54 15
95 7 41 15 84 18 95 4 11 8 947 9 2080 3 2035 2 2061 -17 2118 -30 86 -83 144
-168 184 -58 27 -141 36 -205 22z"/>
</g>
</svg>
